<svg width="1147" height="208" viewBox="0 0 1147 208" fill="none" xmlns="http://www.w3.org/2000/svg">
<path d="M8.4517 165V72.2727H40.0852V89.9006H41.0511C42.983 84.1051 46.2831 79.517 50.9517 76.1364C55.6203 72.7557 61.1742 71.0653 67.6136 71.0653C74.1335 71.0653 79.7479 72.7959 84.4567 76.2571C89.1655 79.678 92.0028 84.2258 92.9688 89.9006H93.9347C95.5043 84.2258 98.8447 79.678 103.956 76.2571C109.067 72.7959 115.064 71.0653 121.946 71.0653C130.84 71.0653 138.045 73.9228 143.558 79.6378C149.112 85.3527 151.889 92.9593 151.889 102.457V165H118.565V110.909C118.565 106.844 117.539 103.665 115.487 101.371C113.434 99.0365 110.677 97.8693 107.216 97.8693C103.795 97.8693 101.078 99.0365 99.0661 101.371C97.094 103.665 96.108 106.844 96.108 110.909V165H64.233V110.909C64.233 106.844 63.2067 103.665 61.1541 101.371C59.1016 99.0365 56.3447 97.8693 52.8835 97.8693C50.5895 97.8693 48.6174 98.3925 46.9673 99.4389C45.3172 100.485 44.0294 101.995 43.1037 103.967C42.2183 105.898 41.7756 108.213 41.7756 110.909V165H8.4517ZM168.325 165V72.2727H200.683V89.9006H201.649C203.339 83.3807 206.015 78.6115 209.678 75.593C213.38 72.5746 217.707 71.0653 222.657 71.0653C224.106 71.0653 225.535 71.1861 226.943 71.4276C228.392 71.6288 229.781 71.9306 231.109 72.3331V100.767C229.459 100.204 227.426 99.781 225.012 99.4993C222.597 99.2176 220.524 99.0767 218.794 99.0767C215.534 99.0767 212.596 99.8213 209.98 101.31C207.404 102.759 205.371 104.812 203.882 107.468C202.393 110.084 201.649 113.163 201.649 116.705V165H168.325ZM242.036 72.2727H275.36V168.139C275.36 176.269 273.649 182.628 270.228 187.216C266.847 191.804 262.098 195.044 255.981 196.935C249.864 198.827 242.72 199.773 234.55 199.773C233.343 199.773 232.236 199.753 231.23 199.712C230.183 199.672 229.036 199.612 227.789 199.531V174.901C228.593 174.981 229.298 175.041 229.901 175.082C230.465 175.122 231.048 175.142 231.652 175.142C235.637 175.142 238.353 174.518 239.802 173.271C241.291 172.063 242.036 170.111 242.036 167.415V72.2727ZM258.698 62.6136C254.19 62.6136 250.326 61.1245 247.107 58.1463C243.887 55.1681 242.277 51.5862 242.277 47.4006C242.277 43.215 243.887 39.633 247.107 36.6548C250.326 33.6766 254.19 32.1875 258.698 32.1875C263.245 32.1875 267.109 33.6766 270.289 36.6548C273.508 39.633 275.118 43.215 275.118 47.4006C275.118 51.5862 273.508 55.1681 270.289 58.1463C267.109 61.1245 263.245 62.6136 258.698 62.6136ZM337.012 166.69C326.95 166.69 318.337 164.698 311.174 160.714C304.01 156.689 298.516 151.095 294.693 143.931C290.869 136.727 288.958 128.376 288.958 118.878C288.958 109.38 290.869 101.049 294.693 93.8849C298.516 86.6809 304.01 81.0866 311.174 77.1023C318.337 73.0776 326.95 71.0653 337.012 71.0653C347.073 71.0653 355.686 73.0776 362.85 77.1023C370.014 81.0866 375.507 86.6809 379.331 93.8849C383.154 101.049 385.066 109.38 385.066 118.878C385.066 128.376 383.154 136.727 379.331 143.931C375.507 151.095 370.014 156.689 362.85 160.714C355.686 164.698 347.073 166.69 337.012 166.69ZM337.253 142.06C340.07 142.06 342.505 141.114 344.558 139.222C346.61 137.331 348.2 134.634 349.327 131.133C350.454 127.631 351.017 123.466 351.017 118.636C351.017 113.767 350.454 109.601 349.327 106.14C348.2 102.638 346.61 99.942 344.558 98.0504C342.505 96.1589 340.07 95.2131 337.253 95.2131C334.275 95.2131 331.719 96.1589 329.586 98.0504C327.453 99.942 325.823 102.638 324.696 106.14C323.569 109.601 323.006 113.767 323.006 118.636C323.006 123.466 323.569 127.631 324.696 131.133C325.823 134.634 327.453 137.331 329.586 139.222C331.719 141.114 334.275 142.06 337.253 142.06ZM431.912 112.841V165H398.588V72.2727H430.222V89.9006H431.188C433.2 84.0246 436.742 79.4164 441.813 76.076C446.924 72.7356 452.881 71.0653 459.682 71.0653C466.242 71.0653 471.937 72.5746 476.767 75.593C481.636 78.5713 485.4 82.6764 488.056 87.9084C490.752 93.1404 492.08 99.1169 492.04 105.838V165H458.716V112.841C458.757 108.253 457.589 104.651 455.215 102.035C452.881 99.4188 449.621 98.1108 445.435 98.1108C442.698 98.1108 440.304 98.7145 438.251 99.9219C436.239 101.089 434.689 102.779 433.603 104.993C432.516 107.166 431.953 109.782 431.912 112.841ZM541.815 112.841V165H508.491V41.3636H540.607V89.9006H541.573C543.666 83.9844 547.147 79.3762 552.017 76.076C556.887 72.7356 562.743 71.0653 569.585 71.0653C576.145 71.0653 581.839 72.5544 586.669 75.5327C591.539 78.5109 595.302 82.616 597.958 87.848C600.655 93.08 601.983 99.0767 601.942 105.838V165H568.619V112.841C568.659 108.253 567.512 104.651 565.178 102.035C562.884 99.4188 559.603 98.1108 555.337 98.1108C552.641 98.1108 550.266 98.7145 548.214 99.9219C546.201 101.089 544.632 102.779 543.505 104.993C542.418 107.166 541.855 109.782 541.815 112.841ZM678.521 124.432V72.2727H711.845V165H680.211V147.372H679.245C677.233 153.288 673.712 157.917 668.681 161.257C663.65 164.557 657.673 166.207 650.751 166.207C644.271 166.207 638.597 164.718 633.727 161.74C628.897 158.762 625.134 154.657 622.438 149.425C619.782 144.193 618.433 138.196 618.393 131.435V72.2727H651.717V124.432C651.757 129.02 652.924 132.622 655.218 135.238C657.553 137.854 660.813 139.162 664.998 139.162C667.775 139.162 670.17 138.578 672.182 137.411C674.235 136.204 675.804 134.513 676.891 132.34C678.018 130.127 678.561 127.491 678.521 124.432ZM762.359 166.207C755.758 166.207 749.681 164.477 744.127 161.016C738.614 157.554 734.186 152.302 730.846 145.259C727.546 138.216 725.896 129.342 725.896 118.636C725.896 107.448 727.626 98.3523 731.088 91.3494C734.589 84.3466 739.097 79.2152 744.61 75.9553C750.164 72.6953 756 71.0653 762.117 71.0653C766.705 71.0653 770.73 71.8703 774.191 73.4801C777.652 75.0497 780.55 77.1626 782.884 79.8189C785.219 82.4349 786.99 85.3125 788.197 88.4517H788.68V41.3636H822.004V165H788.921V149.787H788.197C786.909 152.926 785.058 155.743 782.643 158.239C780.268 160.694 777.371 162.646 773.95 164.094C770.569 165.503 766.705 166.207 762.359 166.207ZM774.674 140.611C777.733 140.611 780.349 139.725 782.522 137.955C784.736 136.143 786.426 133.608 787.593 130.348C788.801 127.048 789.404 123.144 789.404 118.636C789.404 114.048 788.801 110.124 787.593 106.864C786.426 103.564 784.736 101.049 782.522 99.3182C780.349 97.5473 777.733 96.6619 774.674 96.6619C771.615 96.6619 768.999 97.5473 766.826 99.3182C764.693 101.049 763.043 103.564 761.876 106.864C760.749 110.124 760.186 114.048 760.186 118.636C760.186 123.224 760.749 127.169 761.876 130.469C763.043 133.729 764.693 136.244 766.826 138.015C768.999 139.746 771.615 140.611 774.674 140.611ZM923.122 102.457H892.455C892.294 100.566 891.63 98.9358 890.463 97.5675C889.295 96.1991 887.786 95.1527 885.935 94.4283C884.124 93.6636 882.111 93.2812 879.898 93.2812C877.04 93.2812 874.585 93.8044 872.533 94.8508C870.48 95.8973 869.474 97.3864 869.514 99.3182C869.474 100.687 870.058 101.954 871.265 103.121C872.513 104.289 874.907 105.194 878.449 105.838L897.284 109.219C906.782 110.949 913.846 113.867 918.474 117.972C923.142 122.037 925.497 127.491 925.537 134.332C925.497 140.933 923.525 146.668 919.621 151.538C915.757 156.367 910.465 160.11 903.744 162.766C897.063 165.382 889.436 166.69 880.864 166.69C866.697 166.69 855.609 163.793 847.6 157.997C839.632 152.202 835.184 144.555 834.259 135.057H867.341C867.784 137.995 869.233 140.269 871.688 141.879C874.183 143.448 877.322 144.233 881.105 144.233C884.164 144.233 886.679 143.71 888.651 142.663C890.664 141.617 891.69 140.128 891.73 138.196C891.69 136.425 890.805 135.017 889.074 133.97C887.384 132.924 884.727 132.079 881.105 131.435L864.685 128.537C855.227 126.887 848.144 123.748 843.435 119.119C838.726 114.491 836.392 108.535 836.432 101.25C836.392 94.8106 838.082 89.3572 841.503 84.8899C844.964 80.3823 849.894 76.9614 856.294 74.6271C862.733 72.2526 870.36 71.0653 879.173 71.0653C892.575 71.0653 903.14 73.8423 910.867 79.3963C918.635 84.9503 922.72 92.6373 923.122 102.457ZM982.979 166.69C972.917 166.69 964.304 164.698 957.14 160.714C949.977 156.689 944.483 151.095 940.66 143.931C936.836 136.727 934.925 128.376 934.925 118.878C934.925 109.38 936.836 101.049 940.66 93.8849C944.483 86.6809 949.977 81.0866 957.14 77.1023C964.304 73.0776 972.917 71.0653 982.979 71.0653C993.04 71.0653 1001.65 73.0776 1008.82 77.1023C1015.98 81.0866 1021.47 86.6809 1025.3 93.8849C1029.12 101.049 1031.03 109.38 1031.03 118.878C1031.03 128.376 1029.12 136.727 1025.3 143.931C1021.47 151.095 1015.98 156.689 1008.82 160.714C1001.65 164.698 993.04 166.69 982.979 166.69ZM983.22 142.06C986.037 142.06 988.472 141.114 990.525 139.222C992.577 137.331 994.167 134.634 995.294 131.133C996.421 127.631 996.984 123.466 996.984 118.636C996.984 113.767 996.421 109.601 995.294 106.14C994.167 102.638 992.577 99.942 990.525 98.0504C988.472 96.1589 986.037 95.2131 983.22 95.2131C980.242 95.2131 977.686 96.1589 975.553 98.0504C973.42 99.942 971.79 102.638 970.663 106.14C969.536 109.601 968.973 113.767 968.973 118.636C968.973 123.466 969.536 127.631 970.663 131.133C971.79 134.634 973.42 137.331 975.553 139.222C977.686 141.114 980.242 142.06 983.22 142.06ZM1077.88 112.841V165H1044.56V72.2727H1076.19V89.9006H1077.15C1079.17 84.0246 1082.71 79.4164 1087.78 76.076C1092.89 72.7356 1098.85 71.0653 1105.65 71.0653C1112.21 71.0653 1117.9 72.5746 1122.73 75.593C1127.6 78.5713 1131.37 82.6764 1134.02 87.9084C1136.72 93.1404 1138.05 99.1169 1138.01 105.838V165H1104.68V112.841C1104.72 108.253 1103.56 104.651 1101.18 102.035C1098.85 99.4188 1095.59 98.1108 1091.4 98.1108C1088.67 98.1108 1086.27 98.7145 1084.22 99.9219C1082.21 101.089 1080.66 102.779 1079.57 104.993C1078.48 107.166 1077.92 109.782 1077.88 112.841Z" fill="#FBFBFB"/>
<path d="M8.85511 199V177.182H12.9318V180.733H13.2017C13.6563 179.53 14.3996 178.593 15.4318 177.92C16.464 177.239 17.6998 176.898 19.1392 176.898C20.5975 176.898 21.8191 177.239 22.804 177.92C23.7983 178.602 24.5322 179.54 25.0057 180.733H25.233C25.7538 179.568 26.5824 178.64 27.7188 177.949C28.8551 177.248 30.2093 176.898 31.7812 176.898C33.7604 176.898 35.375 177.518 36.625 178.759C37.8845 179.999 38.5142 181.869 38.5142 184.369V199H34.267V184.767C34.267 183.29 33.8646 182.22 33.0597 181.557C32.2547 180.894 31.2936 180.562 30.1761 180.562C28.7936 180.562 27.7188 180.989 26.9517 181.841C26.1847 182.684 25.8011 183.768 25.8011 185.094V199H21.5682V184.497C21.5682 183.313 21.1989 182.362 20.4602 181.642C19.7216 180.922 18.7604 180.562 17.5767 180.562C16.7718 180.562 16.0284 180.776 15.3466 181.202C14.6742 181.618 14.1297 182.201 13.7131 182.949C13.3059 183.697 13.1023 184.563 13.1023 185.548V199H8.85511ZM46.1101 207.182C45.4756 207.182 44.898 207.13 44.3771 207.026C43.8563 206.931 43.468 206.827 43.2124 206.713L44.2351 203.233C45.0116 203.441 45.7029 203.531 46.3089 203.503C46.915 203.474 47.45 203.247 47.9141 202.821C48.3875 202.395 48.8042 201.699 49.1641 200.733L49.6896 199.284L41.7067 177.182H46.2521L51.7777 194.114H52.005L57.5305 177.182H62.0902L53.0987 201.912C52.6821 203.048 52.1518 204.009 51.5078 204.795C50.8639 205.591 50.0968 206.188 49.2067 206.585C48.3165 206.983 47.2843 207.182 46.1101 207.182ZM80.9148 186.045V199H76.6676V177.182H80.7443V180.733H81.0142C81.5161 179.578 82.3021 178.65 83.3722 177.949C84.4517 177.248 85.8106 176.898 87.4489 176.898C88.9356 176.898 90.2377 177.21 91.3551 177.835C92.4725 178.451 93.339 179.369 93.9545 180.591C94.5701 181.812 94.8778 183.323 94.8778 185.122V199H90.6307V185.634C90.6307 184.052 90.2188 182.816 89.3949 181.926C88.571 181.027 87.4394 180.577 86 180.577C85.0152 180.577 84.1392 180.79 83.3722 181.216C82.6146 181.642 82.0133 182.267 81.5682 183.091C81.1326 183.905 80.9148 184.89 80.9148 186.045ZM106.923 199.483C105.541 199.483 104.291 199.227 103.173 198.716C102.056 198.195 101.17 197.442 100.517 196.457C99.8731 195.473 99.5511 194.265 99.5511 192.835C99.5511 191.604 99.7879 190.591 100.261 189.795C100.735 189 101.374 188.37 102.179 187.906C102.984 187.442 103.884 187.092 104.878 186.855C105.872 186.618 106.885 186.438 107.918 186.315C109.224 186.164 110.285 186.041 111.099 185.946C111.914 185.842 112.506 185.676 112.875 185.449C113.244 185.222 113.429 184.852 113.429 184.341V184.241C113.429 183.001 113.079 182.04 112.378 181.358C111.687 180.676 110.654 180.335 109.281 180.335C107.851 180.335 106.724 180.652 105.901 181.287C105.086 181.912 104.523 182.608 104.21 183.375L100.219 182.466C100.692 181.14 101.384 180.07 102.293 179.256C103.211 178.432 104.267 177.835 105.46 177.466C106.653 177.087 107.908 176.898 109.224 176.898C110.096 176.898 111.019 177.002 111.994 177.21C112.979 177.409 113.898 177.778 114.75 178.318C115.612 178.858 116.317 179.63 116.866 180.634C117.416 181.628 117.69 182.92 117.69 184.511V199H113.543V196.017H113.372C113.098 196.566 112.686 197.106 112.136 197.636C111.587 198.167 110.882 198.607 110.02 198.957C109.158 199.308 108.126 199.483 106.923 199.483ZM107.847 196.074C109.021 196.074 110.025 195.842 110.858 195.378C111.701 194.914 112.34 194.308 112.776 193.56C113.221 192.802 113.443 191.992 113.443 191.131V188.318C113.292 188.47 112.998 188.612 112.562 188.744C112.136 188.867 111.649 188.976 111.099 189.071C110.55 189.156 110.015 189.237 109.494 189.312C108.973 189.379 108.538 189.436 108.188 189.483C107.364 189.587 106.611 189.762 105.929 190.009C105.257 190.255 104.717 190.61 104.31 191.074C103.912 191.528 103.713 192.134 103.713 192.892C103.713 193.943 104.101 194.739 104.878 195.278C105.654 195.809 106.644 196.074 107.847 196.074ZM123.347 199V177.182H127.424V180.733H127.694C128.148 179.53 128.892 178.593 129.924 177.92C130.956 177.239 132.192 176.898 133.631 176.898C135.09 176.898 136.311 177.239 137.296 177.92C138.29 178.602 139.024 179.54 139.498 180.733H139.725C140.246 179.568 141.075 178.64 142.211 177.949C143.347 177.248 144.701 176.898 146.273 176.898C148.253 176.898 149.867 177.518 151.117 178.759C152.377 179.999 153.006 181.869 153.006 184.369V199H148.759V184.767C148.759 183.29 148.357 182.22 147.552 181.557C146.747 180.894 145.786 180.562 144.668 180.562C143.286 180.562 142.211 180.989 141.444 181.841C140.677 182.684 140.293 183.768 140.293 185.094V199H136.06V184.497C136.06 183.313 135.691 182.362 134.952 181.642C134.214 180.922 133.253 180.562 132.069 180.562C131.264 180.562 130.521 180.776 129.839 181.202C129.166 181.618 128.622 182.201 128.205 182.949C127.798 183.697 127.594 184.563 127.594 185.548V199H123.347ZM168.102 199.44C165.953 199.44 164.101 198.981 162.548 198.062C161.005 197.134 159.812 195.832 158.969 194.156C158.135 192.471 157.719 190.496 157.719 188.233C157.719 185.998 158.135 184.028 158.969 182.324C159.812 180.619 160.986 179.289 162.491 178.332C164.007 177.376 165.777 176.898 167.804 176.898C169.035 176.898 170.228 177.101 171.384 177.509C172.539 177.916 173.576 178.555 174.494 179.426C175.413 180.297 176.137 181.429 176.668 182.821C177.198 184.204 177.463 185.884 177.463 187.864V189.369H160.119V186.188H173.301C173.301 185.07 173.074 184.08 172.619 183.219C172.165 182.348 171.526 181.661 170.702 181.159C169.887 180.657 168.931 180.406 167.832 180.406C166.639 180.406 165.598 180.7 164.707 181.287C163.827 181.865 163.145 182.622 162.662 183.56C162.188 184.488 161.952 185.496 161.952 186.585V189.071C161.952 190.529 162.207 191.77 162.719 192.793C163.24 193.815 163.964 194.597 164.892 195.136C165.82 195.667 166.904 195.932 168.145 195.932C168.95 195.932 169.684 195.818 170.347 195.591C171.009 195.354 171.582 195.004 172.065 194.54C172.548 194.076 172.918 193.503 173.173 192.821L177.193 193.545C176.871 194.729 176.294 195.766 175.46 196.656C174.636 197.537 173.599 198.223 172.349 198.716C171.109 199.199 169.693 199.44 168.102 199.44ZM192.761 199V177.182H197.009V199H192.761ZM194.906 173.815C194.168 173.815 193.533 173.569 193.003 173.077C192.482 172.575 192.222 171.978 192.222 171.287C192.222 170.586 192.482 169.99 193.003 169.497C193.533 168.995 194.168 168.744 194.906 168.744C195.645 168.744 196.275 168.995 196.795 169.497C197.326 169.99 197.591 170.586 197.591 171.287C197.591 171.978 197.326 172.575 196.795 173.077C196.275 173.569 195.645 173.815 194.906 173.815ZM219.072 182.509L215.222 183.19C215.061 182.698 214.806 182.229 214.455 181.784C214.114 181.339 213.65 180.974 213.063 180.69C212.476 180.406 211.742 180.264 210.862 180.264C209.659 180.264 208.655 180.534 207.85 181.074C207.045 181.604 206.643 182.291 206.643 183.134C206.643 183.863 206.913 184.45 207.452 184.895C207.992 185.34 208.863 185.705 210.066 185.989L213.532 186.784C215.54 187.248 217.036 187.963 218.021 188.929C219.005 189.895 219.498 191.15 219.498 192.693C219.498 194 219.119 195.165 218.362 196.188C217.613 197.201 216.567 197.996 215.222 198.574C213.887 199.152 212.339 199.44 210.577 199.44C208.134 199.44 206.141 198.92 204.597 197.878C203.054 196.827 202.107 195.335 201.756 193.403L205.862 192.778C206.117 193.848 206.643 194.658 207.438 195.207C208.234 195.747 209.271 196.017 210.549 196.017C211.941 196.017 213.054 195.728 213.887 195.151C214.72 194.563 215.137 193.848 215.137 193.006C215.137 192.324 214.881 191.751 214.37 191.287C213.868 190.823 213.096 190.473 212.055 190.236L208.362 189.426C206.326 188.962 204.82 188.223 203.844 187.21C202.879 186.197 202.396 184.914 202.396 183.361C202.396 182.073 202.755 180.946 203.475 179.98C204.195 179.014 205.189 178.261 206.458 177.722C207.727 177.172 209.181 176.898 210.819 176.898C213.177 176.898 215.033 177.409 216.387 178.432C217.741 179.445 218.636 180.804 219.072 182.509Z" fill="#FBFBFB"/>
</svg>
